<?xml version="1.0" encoding="UTF-8" standalone="no"?>
<!-- Created with Inkscape (http://www.inkscape.org/) -->

<svg
   width="86.971779mm"
   height="54.813747mm"
   viewBox="0 0 86.971779 54.813747"
   version="1.1"
   id="svg1"
   xml:space="preserve"
   sodipodi:docname="tikhole.svg"
   inkscape:version="1.3.1 (91b66b0783, 2023-11-16)"
   xmlns:inkscape="http://www.inkscape.org/namespaces/inkscape"
   xmlns:sodipodi="http://sodipodi.sourceforge.net/DTD/sodipodi-0.dtd"
   xmlns="http://www.w3.org/2000/svg"
   xmlns:svg="http://www.w3.org/2000/svg"><sodipodi:namedview
     id="namedview1"
     pagecolor="#ffffff"
     bordercolor="#000000"
     borderopacity="0.25"
     inkscape:showpageshadow="2"
     inkscape:pageopacity="0.0"
     inkscape:pagecheckerboard="0"
     inkscape:deskcolor="#d1d1d1"
     inkscape:document-units="mm"
     inkscape:zoom="1.4142136"
     inkscape:cx="235.113"
     inkscape:cy="32.173358"
     inkscape:window-width="2560"
     inkscape:window-height="1369"
     inkscape:window-x="-8"
     inkscape:window-y="-8"
     inkscape:window-maximized="1"
     inkscape:current-layer="svg1" /><defs
     id="defs1" /><path
     id="path1-3"
     style="display:inline;fill:#404040;fill-opacity:1;stroke:none;stroke-width:0.352778"
     d="m 96.462891,133.45898 c -0.676886,-0.0729 -0.109349,0.90829 -0.164063,1.33008 0.155928,0.69049 0.257523,1.47017 0.681641,2.04297 0.584136,0.28608 1.249834,0.10063 1.871093,0.10156 -0.197695,-1.09792 -0.258983,-2.28775 -0.841796,-3.26562 -0.419127,-0.33615 -1.045555,-0.17138 -1.546875,-0.20899 z m -3.308618,-21.58464 -0.704805,0.90072 -1.277768,-0.15715 0.795884,1.04916 -0.372053,1.09418 1.197034,-0.2518 1.047522,0.83322 -0.05622,-1.20522 1.019554,-0.57896 -1.231891,-0.49282 z m 3.716646,-14.808105 -0.879203,1.126038 -1.602115,-0.19942 1.002254,1.315099 -0.461289,1.368988 1.499054,-0.31266 1.31664,1.04535 -0.07595,-1.508901 1.27513,-0.722578 -1.54615,-0.619593 z m 3.671171,59.615355 c -0.808827,-0.0839 -1.079817,-0.48511 -1.454657,-2.22704 -0.44673,-2.07604 -0.37229,-2.58823 0.43737,-2.76246 0.22768,-0.049 0.42921,-0.0557 0.869727,-0.0589 l 1.72606,8.02123 0.93493,-0.0179 c 0.88644,0.0122 1.21056,-0.0209 1.66727,-0.11915 1.10874,-0.23858 1.77083,-1.00691 1.76289,-2.07226 0.004,-0.66333 -0.17464,-1.83998 -0.48106,-3.26397 -0.3673,-1.7069 -0.67324,-2.78142 -0.97709,-3.34189 -0.70843,-1.41219 -1.77369,-2.0851 -3.57266,-2.2308 -1.01413,-0.0947 -2.219587,-0.0566 -2.817737,0.0721 -1.01983,0.21945 -1.61373,0.71515 -1.86494,1.59804 -0.18411,0.6838 -0.0655,2.0016 0.40012,4.1652 0.47689,2.21615 0.81894,3.20959 1.36984,3.97486 0.62605,0.85903 1.36505,1.21451 2.639457,1.23487 z m 1.54609,-5.04493 c 0.4947,-0.0134 0.81018,0.0836 1.12861,0.36467 0.38122,0.32392 0.58726,0.84906 0.856,2.09791 0.41252,1.91707 0.33084,2.39558 -0.40743,2.55444 -0.14145,0.0304 -0.26782,0.0393 -0.48687,0.0498 z m -7.164197,-8.32243 0.65111,3.02581 12.268887,-0.0267 -0.65111,-3.02581 z m 7.041487,-8.159 c -0.99146,-4.60743 -1.84704,-5.67502 -4.703817,-5.77776 -1.35578,-0.0578 -2.61512,-0.008 -3.15939,0.10898 -0.84469,0.18176 -1.31221,0.57697 -1.53755,1.32461 -0.21913,0.69134 -0.0981,2.02694 0.38259,4.2606 0.46935,2.18112 0.96518,3.71235 1.40967,4.40889 0.8068,1.18804 1.58217,1.53569 3.61909,1.59496 1.40454,0.029 2.444547,-0.0115 2.937617,-0.11764 1.08989,-0.23453 1.6081,-0.99022 1.57622,-2.25199 -0.0304,-0.8223 -0.22902,-2.17786 -0.52443,-3.55065 z m -2.335697,0.006 c 0.23453,1.08988 0.30935,1.69963 0.26863,2.02133 -0.0531,0.4343 -0.29296,0.68889 -0.71598,0.77992 -0.28022,0.0603 -0.82716,0.0864 -1.43824,0.0699 -0.70213,-0.0138 -0.97128,-0.0659 -1.30967,-0.26932 -0.52645,-0.311 -0.74623,-0.81486 -1.11353,-2.52176 -0.43514,-2.02214 -0.33727,-2.59576 0.48991,-2.77376 0.31659,-0.0681 0.84468,-0.0901 1.43825,-0.0699 0.76355,0.0373 1.0567,0.12219 1.38887,0.38196 0.44613,0.36352 0.6662,0.86872 0.99176,2.38163 z m -10.58758,-19.18081 0.65112,3.02581 4.06467,-0.009 c 1.82136,-0.006 2.40434,0.56799 2.89253,2.83668 0.30671,1.42534 0.14604,2.04771 -0.59223,2.20657 -0.26405,0.0568 -0.26405,0.0568 -1.12757,0.0594 l -4.13984,0.007 0.65111,3.02581 4.59787,-0.014 c 0.6108,0.0152 1.11383,-0.0381 1.51934,-0.12537 0.77329,-0.16641 1.25617,-0.49021 1.59302,-1.06028 0.43441,-0.71933 0.45906,-1.71839 0.0807,-3.47649 -0.46935,-2.18112 -1.01648,-2.92886 -2.53225,-3.46817 l 5.261497,-0.009 -0.65112,-3.02581 z m -2.69108,-12.50581 0.65111,3.02581 3.47622,-0.0122 0.178,0.82718 -2.7535,3.3708 0.87811,4.08067 3.53208,-4.88168 4.92038,4.2229 -0.87057,-4.04564 -3.4861,-2.85696 -0.15509,-0.72075 6.54936,-0.011 -0.65111,-3.02581 z m -1.20739,-5.610891 0.65111,3.025811 8.58843,-0.0269 -0.65083,-3.024461 z m -2.24068,-10.41268 0.76852,3.57143 9.23454,-0.018 1.12394,5.22309 3.03435,-0.009 -3.01641,-14.017613 -3.03435,0.009 1.12394,5.223093 z m 43.261307,40.654051 c -0.76984,-3.91619 -2.38048,-7.69274 -4.86224,-11.1214 -5.05499,-6.98368 -12.96188,-11.13514 -21.13542,-11.77437 0.0968,0.4507 0.19371,0.9013 0.29041,1.35202 9.36747,0.74499 18.22925,6.45685 22.67461,15.24005 7.66865,15.15186 -0.75651,31.13827 -11.90389,39.6815 11.99009,-8.62541 17.24604,-21.62918 14.93653,-33.3778 z m -3.73265,-0.63984 -1.45051,-0.71017 -0.23692,-1.59717 -1.12367,1.15996 -1.59277,-0.26831 0.75592,1.42735 -0.74704,1.43149 1.59101,-0.27788 1.1309,1.15319 0.22727,-1.59927 z m -13.73045,-13.74735 -0.51815,-0.55083 0.15962,-0.73949 -0.68433,0.32275 -0.65392,-0.38101 0.096,0.75057 -0.56441,0.50415 0.74348,0.14132 0.30493,0.69238 0.36414,-0.66351 z m 18.50889,42.17549 -1.99576,0.97867 -2.20476,-0.28251 1.8456,1.23938 0.85723,2.05042 0.15076,-2.21764 z m -14.47599,-55.14917 -1.4949,-0.41041 -0.50955,-1.463979 -0.85211,1.294469 -1.54978,0.0322 0.96785,1.21101 -0.44829,1.48349 1.45077,-0.54635 1.27244,0.88486 -0.0716,-1.5487 z m 5.81625,42.44301 -0.75566,0.17054 -0.56938,-0.52606 -0.0713,0.77175 -0.67652,0.37869 0.71244,0.30657 0.15084,0.7599 0.51157,-0.58265 0.76972,0.0913 -0.39608,-0.66643 z m -2.86058,-13.2468 c -0.59683,-2.54009 -1.72282,-4.98774 -3.42348,-7.18164 -2.47575,-3.19374 -5.94588,-5.38105 -9.6941,-6.37304 0.25654,1.19426 0.51349,2.3883 0.76936,3.5827 -1.23568,0.004 -2.47122,0.005 -3.706896,0.008 0.134824,0.31703 0.255629,0.64005 0.365586,0.96689 3.8983,0.51396 7.59752,2.88276 9.71437,6.35916 3.38997,5.56721 2.49761,12.31196 -1.07007,17.30224 0.19361,0.89925 0.38731,1.79844 0.58002,2.69788 l -2.97048,0.006 c -0.49443,0.45386 -1.00891,0.88679 -1.55733,1.28183 0.89323,0.74133 1.52386,1.819 1.83101,2.93771 0.0301,0.12162 0.0618,0.24418 0.0925,0.36597 0.46897,-0.30026 0.93257,-0.6139 1.38429,-0.95598 6.5039,-4.92522 9.47571,-13.37739 7.68522,-20.99763 z m -0.87399,22.2764 -1.37949,0.37403 -1.09006,-0.92411 -0.0702,1.42751 -1.21527,0.75152 1.33567,0.50811 0.33888,1.38811 0.89579,-1.11357 1.42542,0.10716 -0.78287,-1.19637 z m -6.11674,-15.82128 -0.70547,-0.25944 -0.18636,-0.72847 -0.46483,0.59109 -0.75083,-0.0478 0.41877,0.62455 -0.27716,0.69924 0.72333,-0.20534 0.57905,0.4801 0.0286,-0.75146 z m -4.63095,-12.5767 -0.84289,0.26384 -0.66395,-0.58236 0.26384,0.84289 -0.58236,0.66395 0.84289,-0.26384 0.66395,0.58236 -0.26384,-0.84289 z m 1.34565,8.81545 c -0.30861,-1.49641 -1.01766,-2.91669 -2.18312,-4.09991 -0.89132,-0.90491 -2.0413,-1.55974 -3.263999,-1.90835 -0.462844,0.63865 -1.132877,1.12638 -1.921585,1.31105 l -2.605897,0.30491 c 1.584727,0.0105 3.308607,-0.14071 4.730511,0.70316 1.77833,1.13545 2.31252,3.35435 2.74685,5.28264 0.33117,1.75242 0.88671,3.52987 0.6106,5.34061 -0.0641,0.62412 -0.36664,1.14138 0.55184,0.29565 0.91848,-0.84573 1.96175,-4.18777 1.33491,-7.22925 z m 1.52276,31.45665 -2.25217,0.61731 -1.63015,-1.67267 0.61743,2.25268 -1.67278,1.62964 2.25268,-0.61742 1.63014,1.67267 -0.61782,-2.25207 z M 95.509361,121.21353 c -0.12449,-0.45809 -0.327061,-0.87064 -0.755724,-1.11446 -1.933025,-0.24731 -3.89903,-0.0262 -5.845581,-0.10747 -0.09314,-0.4342 -0.186967,-0.86823 -0.280261,-1.3024 -0.283237,0.19796 -0.563493,0.40354 -0.837565,0.62266 -6.223178,4.97545 -7.884294,14.47811 -2.631504,20.77334 2.272945,2.72402 5.635842,4.33864 9.042306,4.53054 -0.07276,-0.33303 -0.139467,-0.66745 -0.216658,-0.99947 -0.25211,-0.57652 -0.110582,-1.50444 0.677407,-1.47994 l 5.05e-4,-10e-5 c 0.08802,-0.0106 0.175937,0.0165 0.263637,0.0215 0.557064,0.008 1.11596,3.7e-4 1.137631,-0.15278 0.02167,-0.15314 -0.434537,-0.2838 -0.873522,-0.48883 -1.534112,-0.78435 -2.195822,-2.3992 -2.636389,-4.0029 -1.15835,-0.38005 -2.233622,-1.08563 -2.964403,-1.95802 -2.679927,-3.19927 -2.027264,-7.62832 0.365092,-10.70594 -0.133392,-0.62092 -0.266957,-1.24186 -0.399813,-1.86289 0.767586,-0.003 1.53503,-0.005 2.302617,-0.007 0.105484,-0.0786 0.205985,-0.16388 0.314593,-0.2379 1.057783,-0.72091 2.18367,-1.21737 3.337628,-1.52749 z m -6.330124,-13.7276 c -0.796312,0.003 -1.592856,0.006 -2.389166,0.008 -1.654088,0.74552 -3.25523,1.66876 -4.775443,2.78255 -11.12555,8.15115 -14.25471,24.33714 -5.892182,35.5842 4.789878,6.44207 12.60849,9.85725 20.244646,9.36908 -0.255571,-1.11005 -0.530578,-2.23105 -0.614914,-3.36116 -7.798833,0.66114 -15.718239,-3.65718 -19.579588,-10.81305 -6.196473,-11.4833 -0.803642,-25.85013 10.498076,-31.7313 0.534554,-0.27817 1.075749,-0.52749 1.61971,-0.76349 0.292408,-0.36161 0.583696,-0.72452 0.888861,-1.07455 z m -12.442056,-1.93025 -0.890838,-0.50922 -0.08573,-1.02235 -0.759656,0.68995 -0.998843,-0.2349 0.421283,0.93588 -0.532221,0.87728 1.020561,-0.11125 0.669823,0.77668 0.209373,-1.00446 z m 8.130518,12.01486 -1.554666,0.14213 -1.063147,-1.14292 0.142135,1.55466 -1.142924,1.06315 1.554666,-0.14214 1.063148,1.14293 -0.142136,-1.55467 z m 3.644187,43.75193 -1.100307,0.42601 -0.974995,-0.66449 0.0653,1.17793 -0.93363,0.72157 1.140708,0.30216 0.397576,1.11065 0.639822,-0.99136 1.179686,-0.035 -0.745518,-0.91474 z m -3.764918,-18.78321 -1.324257,0.34575 -1.035721,-0.8951 -0.08025,1.36624 -1.171093,0.70871 1.274419,0.49856 0.31212,1.33255 0.868013,-1.05843 1.363814,0.11565 -0.738035,-1.15262 z m -4.981148,-12.65411 -1.116509,-0.45009 -0.261889,-1.17527 -0.77299,0.92276 -1.198582,-0.11421 0.638307,1.02079 -0.478645,1.10415 1.167735,-0.29198 0.902527,0.7969 0.08357,-1.20097 z"
     transform="rotate(-77.855887,9.9143128,109.80271)"
     inkscape:label="Tikhole" /></svg>
