<?xml version="1.0" encoding="UTF-8" standalone="no"?>
<svg
   width="717.98999pt"
   height="191.56969pt"
   viewBox="0 0 717.98999 191.56969"
   version="1.1"
   id="svg34"
   sodipodi:docname="logo.svg"
   inkscape:version="1.3.1 (91b66b0783, 2023-11-16)"
   xmlns:inkscape="http://www.inkscape.org/namespaces/inkscape"
   xmlns:sodipodi="http://sodipodi.sourceforge.net/DTD/sodipodi-0.dtd"
   xmlns="http://www.w3.org/2000/svg"
   xmlns:svg="http://www.w3.org/2000/svg">
  <defs
     id="defs34" />
  <sodipodi:namedview
     id="namedview34"
     pagecolor="#ffffff"
     bordercolor="#000000"
     borderopacity="0.25"
     inkscape:showpageshadow="2"
     inkscape:pageopacity="0.0"
     inkscape:pagecheckerboard="0"
     inkscape:deskcolor="#d1d1d1"
     inkscape:document-units="pt"
     inkscape:zoom="0.3665625"
     inkscape:cx="973.91304"
     inkscape:cy="568.79795"
     inkscape:window-width="1350"
     inkscape:window-height="1237"
     inkscape:window-x="371"
     inkscape:window-y="113"
     inkscape:window-maximized="0"
     inkscape:current-layer="g90" />
  <g
     id="g90"
     transform="translate(-117.19873,-193.42529)">
    <path
       id="path16"
       d="m 833.30983,288.48713 h 1.87891 v 3.28125 h -1.52734 c -1.31641,0 -1.84375,0.52735 -1.84375,1.875 v 10.34766 h -3.63672 v -10.25781 c 0,-3.63672 1.82031,-5.2461 5.1289,-5.2461 m -15.97656,12.48829 c 2.55078,0 4.48438,-1.9375 4.48438,-4.72266 0,-2.78516 -1.9336,-4.71875 -4.48438,-4.71875 -2.55078,0 -4.48437,1.93359 -4.48437,4.71875 0,2.78516 1.93359,4.72266 4.48437,4.72266 m -8.12109,-4.72266 c 0,-4.71875 3.57812,-8.11719 8.12109,-8.11719 4.54297,0 8.11719,3.39844 8.11719,8.11719 0,4.72266 -3.57422,8.14844 -8.11719,8.14844 -4.54297,0 -8.12109,-3.42578 -8.12109,-8.14844 m -2.19922,-14.89063 h 1.11328 v 3.3711 h -0.55469 c -1.3789,0 -1.96484,0.58594 -1.96484,1.96484 v 1.78906 h 2.02344 v 3.28125 h -2.02344 v 12.22266 h -3.63672 v -12.22266 h -1.84375 v -3.28125 h 1.84375 v -2.16796 c 0,-3.07813 1.82031,-4.95704 5.04297,-4.95704 m -19.46875,13.07422 c -0.4375,-2.16797 -1.99219,-3.28125 -4.04297,-3.28125 -2.17188,0 -3.8125,1.34766 -4.33984,3.28125 z m -11.89844,1.84766 c 0,-4.75 3.39844,-8.12109 7.88281,-8.12109 4.10547,0 7.79688,2.78515 7.44532,8.88281 h -11.92969 c 0.29297,2.46094 2.14062,4.16406 4.77734,4.16406 1.9375,0 3.57813,-0.91016 4.71875,-2.58203 l 2.40625,1.90625 c -1.52344,2.19922 -3.92969,3.80859 -7.21094,3.80859 -4.83593,0 -8.08984,-3.39843 -8.08984,-8.05859 m -10.64453,4.66016 c 2.46094,0 4.42578,-1.73047 4.42578,-4.69141 0,-2.98828 -1.96484,-4.71875 -4.42578,-4.71875 -2.60938,0 -4.54297,1.90625 -4.54297,4.71875 0,2.78516 1.93359,4.69141 4.54297,4.69141 m -8.17969,-4.69141 c 0,-4.77734 3.48828,-8.05859 7.71094,-8.05859 1.84375,0 3.57422,0.64453 4.71875,1.8164 -0.0586,-1.11328 -0.0898,-2.28515 -0.0898,-3.46094 v -5.1875 h 3.63671 v 22.62892 h -3.22656 l -0.0273,-1.875 c -1.11328,1.40625 -2.99219,2.16797 -5.01172,2.16797 -4.22266,0 -7.71094,-3.3125 -7.71094,-8.03125 m -10.64461,4.69141 c 2.46484,0 4.42578,-1.73047 4.42578,-4.69141 0,-2.98828 -1.96094,-4.71875 -4.42578,-4.71875 -2.60937,0 -4.54297,1.90625 -4.54297,4.71875 0,2.78516 1.9336,4.69141 4.54297,4.69141 m -8.17578,-4.69141 c 0,-4.77734 3.48828,-8.05859 7.70703,-8.05859 2.02344,0 3.89844,0.76171 5.01172,2.16796 l 0.0312,-1.875 h 3.22266 v 15.50391 h -3.22266 l -0.0312,-1.875 c -1.11328,1.40625 -2.98828,2.16797 -5.01172,2.16797 -4.21875,0 -7.70703,-3.3125 -7.70703,-8.03125 m -24.36719,-13.77344 h 3.84375 l 6.82813,11.83985 6.80078,-11.83985 h 3.78125 v 21.51172 h -3.63672 v -15.00781 l -5.80078,10.17187 h -2.34766 l -5.86328,-10.19922 v 15.03516 h -3.60547 z m 0,0 m -287.16797,72.54688 c 0,1.3125 -0.71875,2.52343 -1.87109,3.15625 l -4.89063,2.67968 c -0.60156,0.32813 -1.33203,-0.10546 -1.33203,-0.78906 v -19.20703 c 0,-0.68359 -0.73437,-1.11719 -1.33203,-0.78906 l -8.83984,4.84375 c -1.15235,0.63281 -1.8711,1.84375 -1.8711,3.15625 v 19.05078 c 0,0.65625 -0.35546,1.26172 -0.93359,1.57812 l -1.38672,0.76172 c -1.07812,0.58985 -2.38281,0.58594 -3.46094,-0.004 l -1.3789,-0.75782 c -0.57422,-0.3164 -0.9336,-0.92187 -0.9336,-1.57421 v -19.05469 c 0,-1.3125 -0.71484,-2.52344 -1.86718,-3.15625 L 378.0989,334.90892 v -0.94531 c 0,-1.31641 0.71484,-2.52344 1.86718,-3.15625 l 2.01953,-1.10547 c 1.07422,-0.58985 2.37891,-0.58985 3.45313,0.004 l 15.11328,8.28125 c 1.07813,0.58985 2.38281,0.58985 3.45703,0 l 6.98438,-3.82812 c 0.625,-0.33984 0.625,-1.23438 0,-1.57813 l -15.69141,-8.60156 c -0.625,-0.33984 -0.625,-1.23437 0,-1.57422 l 5.25,-2.8789 c 1.07813,-0.58985 2.38281,-0.58985 3.45703,0 l 20.58594,11.28125 c 1.15234,0.63281 1.87109,1.83984 1.87109,3.15625 z m -40.27343,5.04687 c 0,0.6836 -0.73438,1.11719 -1.33204,0.78906 l -4.89453,-2.68359 c -1.15234,-0.62891 -1.86718,-1.83984 -1.86718,-3.15234 v -14.4961 c 0,-0.68359 0.73046,-1.11718 1.32812,-0.78906 l 5.83203,3.19531 c 0.57422,0.3125 0.9336,0.91797 0.9336,1.57422 z m 53.03125,-35.83203 c -0.11719,-0.19141 -0.25391,-0.38672 -0.41407,-0.57812 -0.8164,-1.00391 -2.14453,-1.98438 -3.84765,-2.91797 l -13.67969,-7.4961 -13.67969,-7.5 c -1.69922,-0.93359 -3.26172,-1.53515 -4.58594,-1.70312 -0.2539,-0.0352 -0.5,-0.0547 -0.73437,-0.0547 -1.46094,0 -3.29297,0.64844 -5.32031,1.75781 l -13.67969,7.5 -13.68359,7.4961 c -1.69922,0.93359 -3.02735,1.91406 -3.84375,2.91797 -0.16016,0.1914 -0.30079,0.38671 -0.41797,0.57812 -0.11719,0.19531 -0.22266,0.41016 -0.32032,0.64063 -0.5039,1.17187 -0.73828,2.75 -0.73828,4.61328 v 29.99609 c 0,2.22266 0.32813,4.05077 1.0586,5.25391 0.73437,1.20312 2.23437,2.38672 4.26172,3.49609 l 13.68359,7.5 13.67969,7.5 c 1.69922,0.92969 3.26172,1.53125 4.58203,1.70313 0.2539,0.0312 0.5,0.0508 0.73828,0.0508 0.23437,0 0.48047,-0.0195 0.73437,-0.0508 1.32422,-0.17188 2.88672,-0.77344 4.58594,-1.70313 l 27.35938,-15 c 2.02734,-1.10937 3.53125,-2.29298 4.26172,-3.49609 0.12109,-0.19532 0.22265,-0.41016 0.32031,-0.63672 0.50781,-1.17188 0.74219,-2.75392 0.74219,-4.61719 v -29.99609 c 0,-1.86328 -0.23438,-3.44141 -0.74219,-4.61328 -0.0977,-0.23047 -0.19922,-0.44532 -0.32031,-0.64063 m 214.98046,2.0547 c -0.71093,-0.0977 -1.72656,-0.21094 -2.52734,-0.21094 -4.84766,0 -8.76953,1.37109 -11.22656,3.91797 v -2.11328 c 0,-0.82031 -0.66406,-1.48438 -1.48438,-1.48438 h -5.14062 c -0.82031,0 -1.48438,0.66407 -1.48438,1.48438 v 33.14453 c 0,0.82031 0.66407,1.48828 1.48438,1.48828 h 5.39844 c 0.82031,0 1.48828,-0.66797 1.48828,-1.48828 v -16.50781 c 0,-6.66016 3.39062,-10.32813 9.53906,-10.32813 1.09766,0.0195 2.89062,0.082 4.17969,0.13281 0.84375,0.0312 1.54297,-0.64453 1.53906,-1.48828 v -4.52734 c 0,-1.01563 -0.76172,-1.88281 -1.76563,-2.01953 m 31.78516,29.00781 c -6.07812,0 -10.32422,-4.46094 -10.32422,-10.84375 0,-6.33984 4.2461,-10.76953 10.32422,-10.76953 6.14063,0 10.26563,4.32812 10.26563,10.76953 0,6.38281 -4.22266,10.84375 -10.26563,10.84375 m 0,-29.21875 c -10.86719,0 -18.75781,7.72656 -18.75781,18.375 0,10.6875 7.89062,18.44531 18.75781,18.44531 10.83594,0 18.69922,-7.75781 18.69922,-18.44531 0,-10.64844 -7.86328,-18.375 -18.69922,-18.375 m -85.20703,16.1875 c -0.29297,-0.37109 -0.26172,-0.90625 0.0781,-1.23828 l 13.27344,-13.03906 c 0.59375,-0.58203 0.17969,-1.58985 -0.65234,-1.58985 h -7.72266 c -0.375,0 -0.73437,0.13672 -1.00781,0.39063 l -14.94141,13.71484 c -0.59765,0.55078 -1.5625,0.125 -1.5625,-0.68359 v -11.9375 c 0,-0.82031 -0.66406,-1.48438 -1.48437,-1.48438 h -5.39453 c -0.82032,0 -1.48828,0.66407 -1.48828,1.48438 v 33.14453 c 0,0.82031 0.66796,1.48828 1.48828,1.48828 h 5.38281 c 0.82422,0 1.49219,-0.67187 1.48828,-1.49609 l -0.0469,-7.69141 c -0.004,-0.41797 0.16796,-0.81641 0.47656,-1.10156 l 4.64844,-4.3086 c 0.39453,-0.36718 1.01953,-0.32421 1.35546,0.0977 l 11.23438,13.94531 c 0.28125,0.35157 0.70703,0.55469 1.16016,0.55469 h 7.74609 c 0.78125,0 1.21094,-0.89453 0.73437,-1.50781 z m 0,0 M 775.1614,326.40511 h -5.39063 c -0.81641,0 -1.48828,0.66797 -1.48828,1.48438 v 33.14453 c 0,0.82031 0.66797,1.48828 1.48828,1.48828 h 5.39063 c 0.82031,0 1.48828,-0.66797 1.48828,-1.48828 v -33.14453 c 0,-0.82031 -0.66797,-1.48438 -1.48828,-1.48438 m 58.79296,34.60938 -14.76953,-18.74219 c -0.29297,-0.37109 -0.25781,-0.90625 0.082,-1.23828 l 13.26954,-13.03906 c 0.59375,-0.58203 0.18359,-1.59375 -0.65235,-1.59375 h -7.72265 c -0.3711,0 -0.73438,0.14062 -1.00782,0.39453 l -14.9414,13.71484 c -0.59766,0.54688 -1.5586,0.125 -1.5586,-0.68359 v -11.9375 c 0,-0.82031 -0.66797,-1.48828 -1.48828,-1.48828 h -5.39453 c -0.82031,0 -1.48437,0.66797 -1.48437,1.48828 v 33.14453 c 0,0.82031 0.66406,1.48828 1.48437,1.48828 h 5.38672 c 0.82422,0 1.49219,-0.67187 1.48828,-1.5 l -0.0508,-7.6875 c 0,-0.41797 0.17187,-0.81641 0.47656,-1.10156 l 4.65235,-4.3086 c 0.39453,-0.36718 1.01562,-0.32421 1.35546,0.0977 l 11.23047,13.94531 c 0.28516,0.35157 0.71094,0.55469 1.16016,0.55469 h 7.75 c 0.77734,0 1.21094,-0.89453 0.73437,-1.50781 m -83.95307,-34.60942 h -32.56641 c -0.8164,0 -1.48828,0.66797 -1.48828,1.48438 v 4.82422 c 0,0.82031 0.66797,1.48437 1.48828,1.48437 h 11.07422 c 0.51563,0 0.92969,0.41797 0.92969,0.9336 v 25.90234 c 0,0.82031 0.66797,1.48828 1.48828,1.48828 h 5.58594 c 0.82031,0 1.48828,-0.66797 1.48828,-1.48828 v -25.90234 c 0,-0.51563 0.41406,-0.9336 0.92969,-0.9336 h 11.07031 c 0.82422,0 1.48828,-0.66406 1.48828,-1.48437 v -4.82422 c 0,-0.82031 -0.66406,-1.48438 -1.48828,-1.48438 M 513.25515,326.0848 c -4.86719,0 -9.24219,1.67578 -12.22657,4.64063 -0.39843,0.39843 -1.01562,0.36718 -1.38281,-0.0586 -2.55469,-2.96484 -6.47656,-4.58203 -11.19922,-4.58203 -4.32812,0 -8.03125,1.28516 -10.58203,3.66406 v -1.85937 c 0,-0.82031 -0.66797,-1.48438 -1.48828,-1.48438 h -5.14063 c -0.82031,0 -1.48828,0.66407 -1.48828,1.48438 v 33.14453 c 0,0.82031 0.66797,1.48828 1.48828,1.48828 h 5.39454 c 0.82031,0 1.48828,-0.66797 1.48828,-1.48828 v -17.08203 c 0,-6.44141 3.30078,-10.13672 9.05078,-10.13672 5.07031,0 7.64062,2.95703 7.64062,8.79297 v 18.42578 c 0,0.82031 0.66797,1.48828 1.48828,1.48828 h 5.39454 c 0.82031,0 1.48828,-0.66797 1.48828,-1.48828 v -17.08203 c 0,-6.44141 3.29687,-10.13672 9.04687,-10.13672 5.07422,0 7.64453,2.95703 7.64453,8.79297 v 18.42578 c 0,0.82031 0.66797,1.48828 1.48828,1.48828 h 5.39454 c 0.82031,0 1.48828,-0.66797 1.48828,-1.48828 v -19.12891 c 0,-10.05468 -5.46485,-15.82031 -14.98828,-15.82031 m 43.5039,0.32031 h -5.39453 c -0.82031,0 -1.48828,0.66407 -1.48828,1.48438 v 33.14453 c 0,0.82031 0.66797,1.48828 1.48828,1.48828 h 5.39453 c 0.82031,0 1.48828,-0.66797 1.48828,-1.48828 v -33.14453 c 0,-0.82031 -0.66797,-1.48438 -1.48828,-1.48438"
       style="fill:#272d33;fill-opacity:1" />
    <path
       d="m 250.88116,193.42529 c -7.32568,0 -12.41862,4.80553 -13.76239,10.32861 -1.92895,8.43218 4.48636,13.51318 11.81203,13.51318 7.4774,0 12.57073,-4.78591 13.9145,-10.33007 1.95061,-8.43219 -4.48676,-13.51172 -11.96414,-13.51172 z m -129.04376,6.38672 -4.63867,21.10107 h 38.57924 l -17.33927,75.91113 h 25.5744 l 17.33928,-75.91113 h 38.57924 l 4.79078,-21.10107 z m 161.78701,0 -22.13005,97.0122 h 22.73548 l 4.48656,-19.47802 11.96414,-8.30567 20.78514,27.78369 h 28.26273 l -30.82002,-38.53418 45.90471,-31.70508 h -31.25376 l -39.61842,27.90967 12.41898,-54.68261 z m 98.40146,0 -22.14963,97.0122 h 22.73548 l 10.46863,-45.95508 c 5.37506,-3.92096 13.60974,-7.27294 21.39057,-7.27294 9.55806,0 14.9345,4.65839 12.70211,14.25 l -8.82249,38.97802 h 22.73548 l 9.25474,-40.72705 c 4.63815,-20.21616 -7.32515,-31.26269 -24.96747,-31.26269 -11.50867,0 -21.67351,5.08069 -28.99918,11.63672 l 8.36615,-36.65918 z m 204.10128,0 -22.14963,97.0122 h 22.73549 l 22.12854,-97.0122 z m -73.57707,25.02246 c -32.59709,0 -48.00717,19.6262 -48.00717,40.43261 0,21.08046 19.44134,33.30762 44.12756,33.30762 32.44539,0 47.83398,-19.77416 47.83398,-40.58057 0,-20.93289 -19.44153,-33.15966 -43.95437,-33.15966 z m 145.63603,0 c -27.80723,0 -47.70446,15.55699 -47.70446,40.72705 0,22.9777 21.84671,33.01318 43.97546,33.01318 13.58934,0 21.37086,-2.4673 31.6875,-6.97851 l -5.52724,-14.5459 c -6.87053,2.9091 -13.4595,4.78564 -22.28066,4.78564 -12.70072,0 -20.48099,-3.33098 -23.47195,-10.18213 -0.45514,-0.86429 -0.75892,-1.87534 -1.04068,-2.8872 h 62.93976 c 1.19205,-4.08961 1.95185,-9.02244 1.95185,-12.07911 0,-19.92102 -19.28946,-31.85302 -40.52958,-31.85302 z m -424.34,1.75048 -16.16906,70.23926 h 22.73548 l 16.14798,-70.23926 z m 423.29931,14.84034 c 10.01321,0 19.59269,3.62502 20.63302,12.64746 h -42.32782 c 3.14267,-8.01057 10.18612,-12.64746 21.6948,-12.64746 z m -144.59534,1.30664 c 11.81212,0 20.48242,6.82963 20.48242,17.4331 0,12.22667 -9.40724,20.36426 -24.36203,20.36426 -11.96382,0 -20.63303,-6.68257 -20.63303,-17.30713 0,-13.09096 10.31643,-20.49023 24.51264,-20.49023 z"
       style="fill:#272d33;fill-opacity:1;stroke-width:1.01397"
       id="path47" />
  </g>
</svg>
